<svg width="615" height="615" viewBox="0 0 615 615" fill="none" xmlns="http://www.w3.org/2000/svg">
<g clip-path="url(#clip0_2228_894)">
<rect width="615" height="615" rx="62.2321" fill="white"/>
<rect x="-22.2422" y="-17.7734" width="658.991" height="658.991" rx="98.8486" fill="#4ED97F"/>
<g clip-path="url(#clip1_2228_894)">
<rect width="297.318" height="441.049" transform="translate(166.227 108.375)" fill="#4ED97F"/>
<path d="M315.035 160.73C376.048 160.73 425.508 210.191 425.508 271.203C425.508 332.216 376.048 381.676 315.035 381.676C254.023 381.676 204.562 332.216 204.562 271.203C204.563 210.191 254.023 160.731 315.035 160.73Z" fill="white" stroke="white" stroke-width="76.2577"/>
<path d="M315.043 175.09C376.055 175.09 425.516 224.55 425.516 285.563C425.516 346.575 376.055 396.035 315.043 396.035C254.031 396.035 204.57 346.575 204.57 285.562C204.57 224.55 254.031 175.09 315.043 175.09Z" fill="white" stroke="white" stroke-width="76.2577"/>
<path d="M315.043 189.504C376.055 189.504 425.516 238.964 425.516 299.977C425.516 360.989 376.055 410.449 315.043 410.449C254.031 410.449 204.57 360.989 204.57 299.977C204.57 238.964 254.031 189.504 315.043 189.504Z" fill="white" stroke="white" stroke-width="76.2577"/>
<path d="M315.043 203.824C376.055 203.824 425.516 253.284 425.516 314.297C425.516 375.309 376.055 424.77 315.043 424.77C254.031 424.769 204.57 375.309 204.57 314.297C204.57 253.284 254.031 203.824 315.043 203.824Z" fill="white" stroke="white" stroke-width="76.2577"/>
<path d="M315.055 218.293C376.067 218.293 425.527 267.753 425.527 328.766C425.527 389.778 376.067 439.238 315.055 439.238C254.042 439.238 204.582 389.778 204.582 328.766C204.582 267.753 254.042 218.293 315.055 218.293Z" fill="white" stroke="white" stroke-width="76.2577"/>
<path d="M315.043 232.48C376.055 232.48 425.516 281.941 425.516 342.953C425.516 403.966 376.055 453.426 315.043 453.426C254.031 453.426 204.57 403.966 204.57 342.953C204.57 281.941 254.031 232.481 315.043 232.48Z" fill="white" stroke="white" stroke-width="76.2577"/>
<path d="M315.043 246.832C376.055 246.832 425.516 296.292 425.516 357.305C425.516 418.317 376.055 467.777 315.043 467.777C254.031 467.777 204.57 418.317 204.57 357.305C204.57 296.292 254.031 246.832 315.043 246.832Z" fill="white" stroke="white" stroke-width="76.2577"/>
<path d="M315.043 261.309C376.055 261.309 425.516 310.769 425.516 371.781C425.516 432.794 376.055 482.254 315.043 482.254C254.031 482.254 204.57 432.794 204.57 371.781C204.57 310.769 254.031 261.309 315.043 261.309Z" fill="white" stroke="white" stroke-width="76.2577"/>
<path d="M315.043 275.605C376.055 275.605 425.516 325.066 425.516 386.078C425.516 447.091 376.055 496.551 315.043 496.551C254.031 496.551 204.57 447.091 204.57 386.078C204.57 325.066 254.031 275.606 315.043 275.605Z" fill="white" stroke="white" stroke-width="76.2577"/>
<path d="M315.043 289.902C376.055 289.902 425.516 339.363 425.516 400.375C425.516 461.387 376.055 510.848 315.043 510.848C254.031 510.848 204.57 461.387 204.57 400.375C204.57 339.363 254.031 289.902 315.043 289.902Z" fill="white" stroke="white" stroke-width="76.2577"/>
<path d="M315.043 304.23C376.055 304.23 425.516 353.691 425.516 414.703C425.516 475.716 376.055 525.176 315.043 525.176C254.031 525.176 204.57 475.716 204.57 414.703C204.57 353.691 254.031 304.231 315.043 304.23Z" fill="white" stroke="white" stroke-width="76.2577"/>
<path d="M315.043 318.613C376.055 318.613 425.516 368.074 425.516 429.086C425.516 490.098 376.055 539.559 315.043 539.559C254.031 539.559 204.57 490.098 204.57 429.086C204.57 368.074 254.031 318.613 315.043 318.613Z" fill="white" stroke="white" stroke-width="76.2577"/>
<path d="M315.043 333.027C376.055 333.027 425.516 382.488 425.516 443.5C425.516 504.512 376.055 553.973 315.043 553.973C254.031 553.973 204.57 504.512 204.57 443.5C204.57 382.488 254.031 333.027 315.043 333.027Z" fill="white" stroke="white" stroke-width="76.2577"/>
<path d="M315.043 347.324C376.055 347.324 425.516 396.784 425.516 457.797C425.516 518.809 376.055 568.27 315.043 568.27C254.031 568.269 204.57 518.809 204.57 457.797C204.57 396.784 254.031 347.324 315.043 347.324Z" fill="white" stroke="white" stroke-width="76.2577"/>
<path d="M315.043 361.676C376.055 361.676 425.516 411.136 425.516 472.148C425.516 533.161 376.055 582.621 315.043 582.621C254.031 582.621 204.57 533.161 204.57 472.148C204.57 411.136 254.031 361.676 315.043 361.676Z" fill="white" stroke="white" stroke-width="76.2577"/>
<path d="M315.043 376.027C376.055 376.027 425.516 425.488 425.516 486.5C425.516 547.512 376.055 596.973 315.043 596.973C254.031 596.973 204.57 547.512 204.57 486.5C204.57 425.488 254.031 376.027 315.043 376.027Z" fill="white" stroke="white" stroke-width="76.2577"/>
<path d="M315.043 390.395C376.055 390.395 425.516 439.855 425.516 500.867C425.516 561.88 376.055 611.34 315.043 611.34C254.031 611.34 204.57 561.88 204.57 500.867C204.57 439.855 254.031 390.395 315.043 390.395Z" fill="white" stroke="white" stroke-width="76.2577"/>
<path d="M315.035 404.809C376.048 404.809 425.508 454.269 425.508 515.281C425.508 576.294 376.048 625.754 315.035 625.754C254.023 625.754 204.562 576.294 204.562 515.281C204.563 454.269 254.023 404.809 315.035 404.809Z" fill="white" stroke="white" stroke-width="76.2577"/>
<path d="M315.043 419.066C376.055 419.066 425.516 468.527 425.516 529.539C425.516 590.552 376.055 640.012 315.043 640.012C254.031 640.012 204.57 590.552 204.57 529.539C204.57 468.527 254.031 419.066 315.043 419.066Z" fill="white" stroke="white" stroke-width="76.2577"/>
<rect width="142.91" height="301.425" transform="translate(320.918 266.031)" fill="#4ED97F"/>
<path d="M315.898 443.652C376.911 443.652 426.371 493.113 426.371 554.125C426.371 615.137 376.911 664.598 315.898 664.598C254.886 664.598 205.426 615.137 205.426 554.125C205.426 493.113 254.886 443.652 315.898 443.652Z" fill="#4ED97F" stroke="#4ED97F" stroke-width="76.2577"/>
<path d="M315.898 144.986C377.71 144.986 427.818 195.095 427.818 256.906C427.818 318.718 377.71 368.826 315.898 368.826C254.087 368.826 203.979 318.718 203.979 256.906C203.979 195.095 254.087 144.986 315.898 144.986Z" fill="#4ED97F" stroke="white" stroke-width="73.3642"/>
</g>
</g>
<defs>
<clipPath id="clip0_2228_894">
<rect width="615" height="615" rx="62.2321" fill="white"/>
</clipPath>
<clipPath id="clip1_2228_894">
<rect width="297.318" height="441.049" fill="white" transform="translate(166.227 108.375)"/>
</clipPath>
</defs>
</svg>
